<?xml version="1.0" encoding="utf-8"?>
<!-- Generator: Adobe Illustrator 18.0.0, SVG Export Plug-In . SVG Version: 6.00 Build 0)  -->
<!DOCTYPE svg PUBLIC "-//W3C//DTD SVG 1.1//EN" "http://www.w3.org/Graphics/SVG/1.1/DTD/svg11.dtd">
<svg version="1.1" id="Vrstva_1" xmlns="http://www.w3.org/2000/svg" xmlns:xlink="http://www.w3.org/1999/xlink" x="0px" y="0px"
	 viewBox="0 0 1062 418" enable-background="new 0 0 1062 418" xml:space="preserve">
<g id="_x23_ffffffff">
</g>
<g id="_x23_5a9636ff">
	<path fill="#FFFFFF" d="M547.8,0H562c9.1,2.6,15.8,10.2,19.4,18.7c1.7,3.3,1.8,7,1.8,10.6c0.4-0.4,1.2-1.2,1.6-1.6
		c0.1-0.5,0.3-1.6,0.3-2.1c4-5.4,7.2-11.7,12.9-15.5c5.2-4.5,11.3-7.7,17.7-10.1H630c9.4,2.4,17.4,9.6,19.7,19.2
		c1.2,8.1,0.9,16.9-3.3,24.2c-5.2,9-12.2,17-20.4,23.5c-16,14.5-35.5,24.9-50.1,40.9c-3.3,3.5-5.2,8-6.9,12.5c1.3,2,2.8,4,4.4,5.8
		c3.5-0.1,7.1,0.2,10.3-1.4c10-4.8,17.8-13,26.2-19.9c4.2-3.8,7.8-8.3,12.4-11.6c11.2-10.5,23.3-20.5,37.8-26.3
		c6.4-2.2,13.4-3.7,20.1-1.9c9,1.2,17.1,7.4,19.9,16.1c2.4,8.7,1.7,18.2-2.1,26.5c-7.2,12.7-20.2,21.5-34.4,24.3
		c5.6,2.8,11.7,5.1,15.9,9.9c5,5.9,8.5,13.5,7.9,21.4c-1.2,9.6-6.4,18.2-13.3,24.8c-7.4,7.8-18.2,11.8-28.8,12.3
		c-9.9-0.3-19.7-4.5-26.3-11.9c-7.8-7.1-13.7-15.9-19.1-24.9c-5.7-8.1-10.4-17.4-18.5-23.3c-4.3-3.3-10.9-2.7-14.6,1.2
		c-1.7,3-3.1,6.8-1.8,10.3c2.9,8.5,8.9,15.4,15.1,21.7c5,4.4,8.7,10,13.5,14.6c8.5,10.2,15.9,22.5,15.9,36.2
		c-0.6,6.5-2.3,12.9-5.4,18.7c-5.9,10.1-15.7,18.3-27.3,21c-4.4,0.9-9,2.1-13.4,0.8c-13.6-1.6-24-14.6-24.2-28
		c-4.5,9.3-11.7,17.4-20.4,23.1c-4.6,3.2-10.2,4.4-15.6,5.3c-3.9,0.7-7.8-0.4-11.6-1.2c-9.5-2.4-16.9-10.9-18.4-20.5
		c-1.8-5.9,0-11.9,1.8-17.6c3.2-9.4,10-17,17.1-23.7c7-7.6,15.6-13.3,23.7-19.6c6.9-5.4,14.3-10.2,21-15.9
		c6.2-4.6,11.4-10.3,15.5-16.8c0.8-2.7,1.2-5.4,1.3-8.2c-2.4-3-6.1-4.3-9.9-3.1c-8.2,3-15.3,8.4-21.9,14.1c-4.1,4.3-9.1,7.6-13.1,12
		c-4.3,4.8-9.6,8.3-14.1,12.9c-12,10.1-25.3,20.1-41.2,22.6c-5.3,1-10.5-0.3-15.5-2.1c-5.9-2-9.8-7.2-13.3-12.1
		c-3.1-7.7-3.1-16.5-1.1-24.5c5.8-15.7,21.5-25.4,37.3-28.6c-5.2-1.6-10.5-3.7-14.3-7.7c-2.6-2.7-5.6-5.3-7.2-8.7
		c-4.7-8.2-3.8-18.6,0.4-26.7c2.8-6.7,8.2-11.7,13.5-16.5c9.9-7.4,23.4-11,35.3-7c6.6,2.4,12.9,6.1,17.7,11.4
		c11.7,12,19.1,27.4,29.5,40.4c4,4.4,9.2,9.7,15.8,8.3c4.9-0.5,7.4-5.3,8.8-9.4c-0.2-0.3-0.6-1-0.8-1.4c-0.2-2.3-0.6-4.5-1.7-6.6
		c-3.2-6.1-7.6-11.7-12.7-16.4c-3.5-3.2-6-7.3-9.4-10.5c-6.9-6.4-12.3-14.2-17-22.3c-2.5-5.9-4.9-12-4.5-18.5
		C513.9,21.6,529.1,4,547.8,0z"/>
	<path fill="#FFFFFF" d="M43.4,282.6c6.5-2.6,13.7-2.6,20.5-3.6c4.6,0.3,9.2,1,13.7,1.5c5.6,0.6,10.5,3.6,15.5,6
		c0.1,5.2-1.1,10.3-2.9,15.1c-0.8,3.1-1.1,6.3-2.7,9.1c-0.9,1.3-2.6,1.1-4,1.6c-5.1-6.5-12.9-10-21-10.8c-4.5-1.1-9.2,0.1-13.4,1.7
		c-3.5,1.2-4.8,5-6.6,7.9c0.5,2.3,0.8,4.9,2.6,6.6c2,2.1,4.8,3.3,7.3,4.8c4.6,2,9.4,3.8,13.9,6.1c5.6,2.9,9.9,7.7,13.5,12.8
		c2.7,9.2,2,19.8-3.7,27.7c-5.5,8.9-15.2,14.1-24.8,17.7c-5.4,1.1-10.8,2.6-16.4,2.3c-12,0.2-25.2-0.6-35-8.3v-7.7
		c0.8-2.9,1.6-5.7,2.4-8.6c0.3-1.4,0.6-2.8,0.8-4.3c0.7-0.8,1.5-1.6,2.2-2.5c0.5,0,1.4,0.1,1.9,0.2c5.6,5.2,12.8,8.5,20.3,9.7
		c6.8,0.2,14.3,1.4,20.2-2.9c3.2-1.4,4-4.8,5.1-7.8c-0.4-1.3-0.8-2.6-1.2-3.9c-6.1-7.1-15.5-9.1-23.4-13.5c-4.2-2.2-8.1-5.2-11-9
		c-2-3.5-2.9-7.6-3.4-11.6c-0.4-9.3,4.3-18,10.3-24.9C29.5,288.8,36.5,285.4,43.4,282.6z"/>
	<path fill="#FFFFFF" d="M663.1,282.8c7.7,0.1,15.4,0,23,0.1c-0.3,2.5-0.8,5-1.6,7.5c-0.3,1.3-0.7,2.7-1,4c-0.3,1.3-0.7,2.7-1,4
		c-0.7,3-1.5,6.1-2.3,9.1c-0.9,4-2.1,8-2.9,12c-0.4,1.3-0.8,2.7-1.2,4c0,0.6-0.1,1.9-0.2,2.5c-0.3,0.4-0.9,1.2-1.1,1.6
		c0,0.6-0.1,1.9-0.2,2.6c-0.8,3-1.6,6.1-2.4,9.2c-0.9,3.6-1.9,7.2-2.7,10.8c-0.7,2.7-1.4,5.3-2,8c-0.3,1.3-0.7,2.7-1,4
		c-0.7,3-1.5,6.1-2.3,9.1c-1.6,5-1.7,10.8-4.6,15.3c-7.6,0.5-15.3,0.2-23,0.1c0.2-1.5,0.5-3,0.9-4.5c0.7-2.7,1.3-5.4,2-8
		c0.5-2.4,1.1-4.7,2-6.9c0.3-1.4,0.6-2.7,0.9-4c2.1-8,4-16,6-24c0.3-1.4,0.6-2.7,1-4.1c0.3-1.3,0.6-2.6,0.9-3.9
		c0.4-1.3,0.7-2.7,1.1-4c0.9-4,1.9-8,2.9-12c0.3-1.4,0.7-2.7,1-4.1c0.3-1.3,0.7-2.7,1-4c0.6-2.7,1.4-5.3,2-8
		C660.2,293.9,660.9,288.1,663.1,282.8z"/>
	<path fill="#FFFFFF" d="M1005.3,282.9c7.3,0,14.6-0.1,21.9,0c-1,4.9-2.3,9.8-3.8,14.7c-0.6,2.3-1.3,4.6-2,6.9
		c-0.9,3.4-1.9,6.7-3,10c-1.1,4.4-2.7,8.6-3.7,13c4.5-5.7,10.3-10.2,17.1-12.9c7.4-3.4,16.3-3.9,23.6-0.1c3.3,1.5,5.1,4.9,6.6,8.1
		v16.1c-3.8,13.9-7.2,27.9-10.5,41.8c-0.6,2.3-1.5,4.5-2.6,6.5c-7-0.2-14.1-0.1-21.1-0.1c-0.5-0.3-1.4-1-1.9-1.3
		c0.3-0.4,0.9-1.2,1.2-1.6c0-0.6,0.1-1.9,0.2-2.5c0.5-1.8,0.9-3.5,1.4-5.2c0.7-4.4,1.8-8.7,3-13c0.6-2.7,1.3-5.3,2-8
		c1.4-7,4.2-13.7,4.4-20.9c-1.2-1.1-2.3-2.3-3.5-3.4c-3.1,0-6.3-0.2-9,1.6c-8.7,4.8-12.6,14.8-15.2,23.9
		c-2.7,10.1-4.4,20.5-7.6,30.5c-7.7,0-15.3,0-23-0.1c0.6-9.1,4-17.7,5.8-26.6c0.7-2.7,1.3-5.4,2-8c1.6-6.7,3.4-13.3,5-20
		c1.2-5,2.6-9.9,3.7-14.9l0.4-0.9c1.9-7.7,3.6-15.5,6-23.2C1003.5,289.9,1004.4,286.4,1005.3,282.9z"/>
	<path fill="#FFFFFF" d="M110.4,295.9c7.6,0.1,15.2-0.1,22.8,0.2c-0.5,6.6-2.9,12.9-5.2,19c5.8-0.3,11.5-0.3,17.3,0
		c-0.3,1.5-0.5,3-0.9,4.5c-0.4,1.3-0.7,2.6-1.1,3.9c-1,2.7-0.6,6.2-2.7,8.3c-5.4,0.4-10.9,0.1-16.3,0.2c-0.3,1.2-0.7,2.4-1,3.5
		c-0.8,4.7-1.7,9.4-3,14c-1,4-1.8,8.1-3.1,12.1c-0.1,2-0.2,4.1-0.3,6.1c4.3,3.8,10.1,2,15.1,0.9c-0.5,6.3-2.5,12.4-4.3,18.4
		c-0.5,0.1-1.6,0.2-2.1,0.3c-3.1,1-6.4,0.5-9.6,1.4c-1.9,0.6-3.9,0.4-5.7-0.4c-6,0.2-11.5-3-15-7.6c-3.3-5.8-2.9-13-1.7-19.3
		c1.3-6.7,3-13.4,5-19.9c0.6-3.3,1.6-6.6,3.4-9.5c-3.4,0.1-6.8,0.1-10.2,0.1c0.6-3.9,1.9-7.7,2.5-11.7c0.5-1.8,0.3-4.2,2.1-5.4
		c3-0.4,6.1-0.1,9.2,0c0.6-3.3,1.2-6.5,2-9.7c0.3-1.3,0.7-2.7,1.1-4c0.1-0.6,0.2-1.9,0.3-2.5C109.5,297.9,109.9,296.9,110.4,295.9z"
		/>
	<path fill="#FFFFFF" d="M195.4,312.6c3.8-1.5,7.9-0.1,11.4,1.7c2.8,2.9,4.3,7.4,2.7,11.3c-0.6,2-1.2,3.9-1.7,5.9
		c-1.6,2.6-3.7,4.7-6.3,6.3c-2.3,0.6-4.8,1.8-7.1,0.5c-0.5-0.1-1.4-0.3-1.8-0.4c-1-2.4-3.2-3.9-5.4-5c-2.8,1.2-5.9,1.9-8,4.3
		c-2.9,2.4-4.3,6-5.8,9.3c-0.3,1-0.7,2-1,3c-2.1,7.2-3.8,14.6-5.7,21.9c-1.8,5.1-1.5,11.2-5,15.5c-7.1,0.5-14.2,0.1-21.3,0.2
		c-0.4-0.5-1.1-1.4-1.5-1.9c1.7-4.5,2.4-9.3,3.7-13.8c1.7-6.7,3.3-13.3,5-20c0.6-2.7,1.3-5.4,2-8c0.3-1.3,0.6-2.7,0.9-4
		c2.1-8,4-16.2,4.6-24.5c6.6,0,13.3-0.1,19.9,0.2c0.3,4-0.6,8-1.3,12c-0.3,1.1-0.7,2.3-1,3.4c1.8-1.9,3.1-4,4.5-6.1
		c3.2-4.3,7.4-7.7,12.1-10.3C191.5,313.6,193.4,313.1,195.4,312.6z"/>
	<path fill="#FFFFFF" d="M237.4,312.5c5.4-1.3,11.4-0.7,16.3,1.8c4.1,2.1,5.5,6.6,8,10.1c0.9-3,0.3-7,2.8-9.3
		c7.3-0.5,14.6-0.5,21.9,0c-0.5,2.4-1,4.9-1.7,7.2c-0.4,1.3-0.7,2.6-1,4c-0.3,1.4-0.7,2.7-1,4.1c-0.7,3.1-1.5,6.1-2.3,9.1
		c-0.8,3.3-1.6,6.6-2.7,9.9c-1.3,5.3-2.7,10.6-4,15.9c-1.3,3.7-1.4,7.6-2.4,11.3c-0.2,3.5,0.2,7.2-1.5,10.4
		c-6.6,0-13.2,0.1-19.8-0.1c-0.4-4.2,0.6-8.3,1.3-12.5c-4.9,7.2-12.4,12.6-21.1,13.9c-6.6,2-13.7-0.5-19.3-4.1
		c-3.4-2.3-4.8-6.4-6.7-9.8c-1.3-5.5-3.5-11.5-1.4-17.1c0.1-2.3,0.2-4.7,0.8-7c0.9-3,1.7-5.9,2.7-8.8c3.8-8.9,9.4-17.3,17.4-23
		C227.7,315.7,232.5,313.7,237.4,312.5 M243.6,329.1c-8.8,3.2-12.2,12.4-15.3,20.4c-0.8,2.9-1.2,5.9-1.7,8.8
		c-1.2,2.8,0.2,5.6,0.6,8.4c1.3,1.4,2.7,2.7,4,4.1c1.6,0.4,3.2,0.8,4.9,1.1c1.3-0.9,2.9-1,4.4-1.1c6.1-3,9.6-9.3,12.1-15.3
		c0.4-2,1-4,1.6-6c1-4.5,2.5-9.2,1.5-13.9c-1-3.1-3.7-5-6.3-6.6C247.5,329.1,245.6,329.1,243.6,329.1z"/>
	<path fill="#FFFFFF" d="M344.4,312.5c3.2-0.9,6.6-0.6,9.9-0.6c0.4,0.3,1.2,0.9,1.6,1.2c0.6,0,2,0,2.6,0c3.4,1.6,6.9,3.6,8.4,7.3
		c1.6,4.2,2.8,9,1.3,13.5c0,5.1-1.6,9.9-2.8,14.7c-0.4,1.4-0.7,2.7-1,4.1c-0.3,1.3-0.7,2.6-1,4c-0.6,2.7-1.3,5.3-2,8
		c-1.3,5.3-2.7,10.7-4,16c-0.5,2.3-0.9,4.8-2.8,6.4c-6.9,0.4-13.9,0-20.8,0.2c-0.4-0.3-1.2-1-1.6-1.3c0.5-1.4,0.9-2.8,1.3-4.3
		c0.6-3.1,1.5-6.1,2.3-9.2c0.7-2.6,1.2-5.2,1.7-7.8c1.4-5.7,2.8-11.4,4.3-17.1c0.9-4.3,2.7-8.5,2.5-12.9c-1.2-1.1-2.4-2.3-3.5-3.4
		c-2,0-4,0-6,0c-2.6,1.4-5.4,2.8-7.6,4.8c-3,3.6-5.8,7.3-7.6,11.6c-2,5.7-3.6,11.5-5,17.3c-0.7,5.7-2.6,11.2-3.8,16.8
		c-0.4,1.9-1,3.7-1.7,5.5c-7.6-0.1-15.3,0.2-22.9-0.2c0.1-1.6,0.1-3.2,0.4-4.8c4.4-17.3,8.7-34.6,13-51.9c0.7-2.6,0.7-5.3,1.5-7.9
		c0.6-2.4-0.9-6.3,2.2-7.3c6-0.3,12.1-0.1,18.2,0c0.5,4.6-0.7,9-1.2,13.4c2.7-2.1,4.3-5.4,7.2-7.4c3.8-3.5,8.6-5.6,13.4-7.6
		C341.8,313.3,343.1,312.9,344.4,312.5 M319.3,329.3C319.8,329.8,319.8,329.8,319.3,329.3z"/>
	<path fill="#FFFFFF" d="M403.4,314.7c3.9-1.9,8.3-2.6,12.6-2.9c3.7-0.3,7.1,1.4,10.6,2.3c2.9,2.8,6.9,5.6,6.6,10.2
		c0.4-0.4,1.1-1.3,1.5-1.8c0.3-2.6,0.8-5.2,1.6-7.7c7.6,0,15.2-0.1,22.8,0c-0.9,5-2.7,9.7-3.8,14.7c-3,12-6.1,24-9,36
		c-0.4,1.3-0.6,2.6-1,4c-0.3,1.7-0.6,3.4-1.1,5.1c-0.2,2.3-0.3,4.7-0.9,7c-0.4,1.9,0.2,4.9-2.3,5.3c-6,0.3-12.1,0.1-18.1,0
		c0-3,0-6,0.1-9.1c0.5-1.2,0.9-2.3,1.3-3.4c-2.6,2-3.9,5.3-6.7,7.2c-2.5,2-5.2,3.8-8.1,5.2c-5.3,1.1-10.8,3.5-16.1,1.6
		c-2-0.6-3.9-1.1-5.9-1.6c-7.2-3.9-11.8-11.8-12.5-19.9c-0.2-3.8,0-7.6,0.3-11.4c2.1-12.8,7.5-25.4,17.2-34.3c3-2.2,6-4.4,9.2-6.4
		C402,314.9,402.9,314.8,403.4,314.7 M416.6,329.2c-1.1,0.4-2.2,0.7-3.3,1.1c-1.7,1.6-3.5,3.2-5.1,4.9c-2.9,2.8-4,6.9-6,10.3
		c-1,3.3-1.8,6.6-2.7,9.9c-0.8,2.9-0.5,6-0.4,9c0.8,1.6,1.5,3.4,2.7,4.8c1.9,1.4,4.2,2.1,6.4,2.7c2.6-0.3,4.9-1.6,7.2-2.7
		c4-2,6.1-6.1,8.4-9.8c0.1-0.5,0.2-1.4,0.2-1.9c2.9-5,3-10.9,4.6-16.3c0.1-1.5,0.2-2.9,0.3-4.4c-0.5-1.2-0.9-2.5-1.3-3.7
		c-1.5-1.6-3.3-3.1-5.2-4.3C420.5,329.1,418.6,329.1,416.6,329.2z"/>
	<path fill="#FFFFFF" d="M604.4,313.6c7.5-2,15.8-2.7,23.2,0.1c0.5,0.1,1.4,0.2,1.9,0.3c4.2,2.2,8,5.4,9.5,10
		c0.5,4.5,0.3,9.1-1,13.5c-2,3.4-4.9,6.2-7.8,8.8c-2.7,1.9-5.9,3-8.8,4.6c-3.5,1.1-7.1,1.9-10.8,2.6c-2.6,0.8-5.3,0.7-8,0.8
		c-4,1.6-8.4,0.6-12.6,0.8c0.1,3.6-0.9,7.9,2.1,10.7c5.5,5.5,14.3,5,21.2,2.8c1-0.3,2.1-0.6,3.1-0.9c3.1-1.5,6-3.3,8.8-5.2
		c0.6,0.8,1.2,1.6,1.7,2.4c-0.7,3.6-1.8,7.1-2.7,10.6c-0.4,7.1-7.8,10.3-13.8,11.9c-2.7,0.7-5.5,0.3-8.2,1.2
		c-12.4,1.9-26.9-3.2-32.3-15.3c-2.8-7-2.7-14.7-1.6-22.1c0.8-5.9,3.8-11.2,6.5-16.4c2.5-4.6,6.5-8,10.2-11.7
		c3.8-3.7,8.8-5.7,13.4-8.1C600.5,314.6,602.4,314.1,604.4,313.6 M610.4,327.6c-7.6,1.4-13.4,7.8-16.5,14.5c1.2-0.1,2.3-0.3,3.5-0.5
		c2.6-1,5.5-0.7,8.2-1.2c2-0.6,3.9-1.2,6-1.6c3.1-1.9,7.4-3.6,7.6-7.9c-1-1.9-3-2.8-4.7-4C613.1,327.2,611.7,327.4,610.4,327.6z"/>
	<path fill="#FFFFFF" d="M722.4,312.6c4.7-1,9.6-1,14.3,0c1.9,0.5,3.8,1.1,5.8,1.5c4.2,2,7.5,5.2,9.5,9.4c0.2,4.6,0.6,9.4-0.9,13.9
		c-1.9,3.5-4.9,6.2-7.8,8.8c-2.7,1.9-5.9,3-8.8,4.6c-5.4,1.4-10.8,3.1-16.4,3.3c-1.2,0-2.4,0.2-3.6,0.6c-3.8,0.3-7.5,0.3-11.3,0.3
		c0,2.5,0,5,0,7.4c1.8,4,5.5,6.2,9.5,7.3c5.8,0.7,11.5-0.2,16.9-2.1c2.8-1.2,5.5-2.9,7.5-5.3c1.5,0.6,2.7,1.6,3.2,3.3
		c-0.9,1.4-1.4,3-1.7,4.7c-0.9,3.4-1.2,7.1-2.9,10.3c-2.8,4-7.9,5-12.2,6.8c-2.2,0.6-4.6,0.7-6.9,0.8c-6.3,2.1-12.9,0.1-19.1-1.4
		c-8.9-3.2-15.4-11.5-16.6-20.8c-0.4-7.3-0.5-14.7,2.2-21.5c0.5-1,1-2,1.6-3c0-0.5,0.1-1.4,0.2-1.9c3-4.8,5.9-9.6,10.2-13.3
		C702.1,318.5,712.2,314.1,722.4,312.6 M720.5,328.2c-6.2,2.6-10.8,8-14,13.8c8.8-1.1,20-1,25.4-9.5c0-0.5,0.1-1.7,0.1-2.2
		c-1.5-1.2-3-2.3-4.5-3.4C725.2,327.3,722.8,327.8,720.5,328.2z"/>
	<path fill="#FFFFFF" d="M809.4,312.5c6.3-1.5,13.5-0.6,18.7,3.4c3.6,2.3,5.4,6.8,5,11c-0.3,4.5,0.6,9.2-0.7,13.6
		c-1,3.6-1.8,7.2-2.8,10.8c-1.6,6.7-3.3,13.3-5,20c-0.9,4-2.2,8-2.8,12.1c-0.7,1.2-1.4,2.4-2.3,3.4c-6.9,0.5-13.9,0-20.9,0.3
		c-0.6-0.6-1.3-1.3-1.9-1.9c0.8-1.9,1.4-3.9,1.8-5.9c0.5-2.7,1.3-5.4,2-8c0.1-0.6,0.3-1.8,0.4-2.4c1.8-5.8,2.9-11.8,4.5-17.6
		c0.6-2.7,1.3-5.3,2-8c0.6-3,1.2-5.9,1.4-8.9c-1.2-1.1-2.3-2.3-3.4-3.4c-2,0-4,0-6,0c-3.5,2.1-7.9,3.7-10,7.5c-2,2.9-3.9,5.8-5.4,9
		c-0.1,0.5-0.2,1.4-0.3,1.9c-1.2,2.2-2.1,4.7-2.5,7.2c-1.2,5-2.5,9.9-3.7,14.8c-0.4,2.1-0.8,4.2-1.3,6.2c-0.7,2.3-1.1,4.6-1.5,7
		c-0.8,0.8-1.6,1.6-2.3,2.4c-5.9,0.1-11.7,0-17.6,0.1c-1.7,0.1-3.4-0.3-5-1.1c0.6-1.9,1.3-3.7,1.6-5.6c0.9-3.6,1.8-7.2,2.7-10.8
		c1-4,2-8,3-12.1c0.8-3,1.5-6.1,2.3-9.1c2.1-8.7,4.5-17.3,6.1-26c0.5-2.4-0.7-5.7,1.7-7.3c6.2-0.4,12.4,0,18.5-0.1
		c0,3.2,0.7,6.6-0.6,9.7c-0.1,1.3-0.3,2.7-0.4,4c1.8-1.8,3.2-4,4.9-5.9c3.3-3,7.2-5.1,10.8-7.6C803.5,314.2,806.5,313.5,809.4,312.5
		 M784.3,329.2C784.8,329.8,784.8,329.8,784.3,329.2z"/>
	<path fill="#FFFFFF" d="M943,316.9c8.8-4.3,19-6.2,28.7-4.3c5,0.1,9.1,3.3,12.3,6.8c0.1,0.5,0.2,1.5,0.3,1.9
		c1.5,2.6,0.4,5.4-0.3,8.1c-1.8,3.7-5.4,7.3-9.9,6.7c-4.8,1-7.4-4.4-11.9-4.2c-6.1-0.3-12.4,2.1-16.3,6.8c-5.3,5.8-7.5,14-6.6,21.7
		c1.6,3.5,3.7,6.9,7.3,8.4c3.5,1.2,7.3,1.4,10.9,0.9c1.3-0.5,2.7-0.8,4.1-1c3.8-1.3,6.5-5,10.7-4.8c0,2.3-0.1,4.6-0.7,6.8
		c-0.4,1.3-0.8,2.6-1.1,4c-0.4,1.3-0.7,2.7-1.1,4c-0.1,0.5-0.3,1.5-0.4,2c-2,2-4.2,3.7-6.5,5.3c-0.5,0.1-1.4,0.3-1.8,0.4
		c-6.4,2.3-13.6,3.7-20.2,2.1c-7.8-1.1-16-4.4-20.2-11.5c-3.5-4.9-4.7-11-5.3-16.8c-0.2-1.6,0.3-3.2,0.8-4.7c0.2-2,0.4-4,0.8-6
		C920.1,335.5,929.7,322.7,943,316.9z"/>
	<path fill="#FFFFFF" d="M509.4,314.9c20.8,0,41.7,0,62.6,0c0,1.9,0.1,3.8,0.1,5.6c-4.9,5-10.3,9.5-14.3,15.1
		c-3.9,4.5-8.7,8.1-12.1,12.9c-4.2,5.4-10,9.4-14,15c-1.5,1.9-3.2,3.6-4.9,5.4c10.5,0,21,0,31.4,0c-0.3,2.3-0.9,4.5-1.7,6.6
		c-0.7,1.7-1.4,3.4-2.1,5c-0.3,1-0.6,2-0.8,3c-0.6,1.6-1.2,3.9-3.4,3.5c-20.2,0.1-40.4,0-60.6,0c-0.5-1-1-2-1.5-3
		c0.4-1.2,0.8-2.5,1.2-3.7c5.2-5.8,11.5-10.7,16.1-17.1c4.8-5.5,10.7-10,15-16c4.9-5.3,10.2-10.2,15.2-15.4
		c-1.5,0.6-2.9,1.3-4.5,1.2c-9,0-18,0-27,0c-0.3-3.8,0.9-7.4,2.7-10.6c0.5-1.6,1.1-3.3,1.6-4.9C508.6,316.9,509.1,315.6,509.4,314.9
		z"/>
	<path fill="#FFFFFF" d="M842.7,315c8-0.2,16-0.1,24.1-0.1c2.3,9.6,3.2,19.4,3.5,29.1c1.5,7.8,0.5,15.7,1,23.6
		c8.2-13.6,15.7-27.6,22.2-42.1c1.7-3.4,2.4-7.4,4.9-10.4c8-0.6,16.1-0.3,24.2,0c-6.4,15.8-15.8,30.2-24.7,44.7
		c-9.9,15.1-20.3,30-32.5,43.4c-7.1,6.3-14.7,12.3-24.1,14.8H827c-2.6-0.9-5.2-2-7.2-3.8c-3.4-4.2-3.4-10.1-1.6-15
		c0.8-0.9,1.7-1.7,2.6-2.5c2.3-2.9,6.4-1.6,9.7-1.7c2.2,2.2,5.1,4.8,8.5,3.9c5.6-1.7,9.4-6.4,13.1-10.5c0.5-7.2-1.1-14.2-1.4-21.3
		c-1-8.3-1.8-16.7-3-25c-1.2-5.8-1.9-11.6-3-17.4C843.7,321.5,843.1,318.3,842.7,315 M870.3,368.2
		C870.8,368.8,870.8,368.8,870.3,368.2z"/>
</g>
<g id="_x23_5b9536ff">
	<path fill="#FFFFFF" d="M885.7,290.7c2.8-2.5,5.3-5.3,8-7.8c6.4,0.1,12.8,0,19.2,0.1c0,0.7,0.1,2.1,0.2,2.8
		c-8.3,6.5-16.9,12.6-25.3,19.1c-2.5,1.9-5.5,3.6-8.7,3.3c-3.2-0.2-7.2,1-9.5-1.9C874.8,300.9,879.7,295.1,885.7,290.7z"/>
</g>
<g id="_x23_fefffdff">
</g>
<g id="_x23_fffeffff">
</g>
<g id="_x23_e0ffbdff">
	<path fill="#FFFFFF" d="M319.3,329.3C319.8,329.8,319.8,329.8,319.3,329.3z"/>
</g>
<g id="_x23_e3ffc3ff">
	<path fill="#FFFFFF" d="M784.3,329.2C784.8,329.8,784.8,329.8,784.3,329.2z"/>
</g>
<g id="_x23_e2ffc1ff">
	<path fill="#FFFFFF" d="M870.3,368.2C870.8,368.8,870.8,368.8,870.3,368.2z"/>
</g>
</svg>
