<?xml version="1.0" encoding="utf-8"?>
<!-- Generator: Adobe Illustrator 18.0.0, SVG Export Plug-In . SVG Version: 6.00 Build 0)  -->
<!DOCTYPE svg PUBLIC "-//W3C//DTD SVG 1.1//EN" "http://www.w3.org/Graphics/SVG/1.1/DTD/svg11.dtd">
<svg version="1.1"
	 id="svg3236" xmlns:dc="http://purl.org/dc/elements/1.1/" xmlns:cc="http://creativecommons.org/ns#" xmlns:rdf="http://www.w3.org/1999/02/22-rdf-syntax-ns#" xmlns:svg="http://www.w3.org/2000/svg"
	 xmlns="http://www.w3.org/2000/svg" xmlns:xlink="http://www.w3.org/1999/xlink" x="0px" y="0px" viewBox="0 0 538.6 661.5"
	 enable-background="new 0 0 538.6 661.5" xml:space="preserve">
<g id="layer1" transform="translate(-102.78278,-162.60345)">
	<g id="g3289" transform="matrix(4.2228142,0,0,4.2228142,-689.66203,-1453.0658)">
		<g id="g3113" transform="matrix(1.25,0,0,-1.25,270.47695,416.16351)">
			<path id="path3115" fill="#FFFFFF" d="M0,0c0-8.5-6.9-15.4-15.4-15.4c-8.5,0-15.4,6.9-15.4,15.4s6.9,15.4,15.4,15.4
				C-6.9,15.4,0,8.5,0,0"/>
		</g>
		<g id="g3117" transform="matrix(1.25,0,0,-1.25,265.4782,435.10577)">
			<path id="path3119" fill="#FFFFFF" d="M0,0c-6.3-13.8-30.4-16.3-37.6,0.1C-47,21.7-27,35.8-15.5,35.9
				c-17.7-3.7-20.8-19-14.2-30.1C-22.1-6.9-6.5-4.8,0,0"/>
		</g>
		<g id="g3121" transform="matrix(1.25,0,0,-1.25,245.85507,452.93589)">
			<path id="path3123" fill="#FFFFFF" d="M0,0c27.6,4,36.8,54.1-2.6,55.5C45.3,58.5,51.1-3.1,0,0"/>
		</g>
		<g id="g3125" transform="matrix(1.25,0,0,-1.25,196.60307,448.21427)">
			<path id="path3127" fill="#FFFFFF" d="M0,0c-9.4,18.2,4.5,43.8,25.1,49.4C4.5,38.3,6.6,14.4,18.5,2.6C29.3-8,49.2-10.9,63.6-2.9
				C38.8-25.6,9.2-17.7,0,0"/>
		</g>
		<g id="g3129" transform="matrix(1.25,0,0,-1.25,196.45895,461.17814)">
			<path id="path3131" fill="#FFFFFF" d="M0,0c20.6-16.7,49.6-12.3,64.4,3c14.3,14.7,24,37,5.1,58.3C99.3,31.8,86.7,3.1,77.9-7.2
				C69.1-17.5,32.2-38.9,0,0"/>
		</g>
		<g id="g3133" transform="matrix(1.25,0,0,-1.25,202.88357,495.27115)">
			<path id="path3135" fill="#FFFFFF" d="M0,0c12.9-31,68.1-2.4,77.3-13.1C72,16.5,11.7-10,0,0"/>
		</g>
		<g id="g3137" transform="matrix(1.25,0,0,-1.25,217.25707,537.58377)">
			<path id="path3139" fill="#FFFFFF" d="M0,0c-1.2-0.3-4-0.7-7.6-0.7C-17.8-0.7-23,2.6-23,6.9c0,5.2,7.2,8,16.1,8
				c3.5,0,6.1-0.4,7.3-0.7L-1,11.5c-1.4,0.3-3.2,0.6-5.6,0.6c-5.3,0-9.4-1.6-9.4-5c0-3,3.5-4.9,9.4-4.9c2,0,4.2,0.2,5.6,0.5L0,0z
				 M-11.2,15.5l-4.4,2.8h4.7l2.2-1.4h0.1l2.2,1.4h4.6l-4.4-2.8C-6.3,15.5-11.2,15.5-11.2,15.5z"/>
		</g>
		<g id="g3141" transform="matrix(1.25,0,0,-1.25,222.99507,533.71715)">
			<path id="path3143" fill="#FFFFFF" d="M0,0c1.8-0.5,4.6-0.9,7.4-0.9c3.1,0,4.7,0.6,4.7,1.6c0,0.9-1.4,1.5-4.9,2.1
				C2.2,3.7-1,5.1-1,7.3c0,2.6,4.2,4.6,11.2,4.6c3.3,0,5.8-0.4,7.5-0.8l-1.5-2.8C15,8.6,13,9,10.1,9S5.8,8.4,5.8,7.6
				c0-1,1.7-1.4,5.5-2.1c5.2-1,7.7-2.4,7.7-4.5c0-2.5-3.8-4.7-11.9-4.7c-3.4,0-6.7,0.5-8.4,0.9L0,0z"/>
		</g>
		<g id="g3145" transform="matrix(1.25,0,0,-1.25,252.52395,533.71715)">
			<path id="path3147" fill="#FFFFFF" d="M0,0c1.8-0.5,4.5-0.9,7.4-0.9c3.1,0,4.7,0.6,4.7,1.6c0,0.9-1.4,1.5-4.9,2.1
				C2.2,3.7-1,5.1-1,7.3c0,2.6,4.2,4.6,11.2,4.6c3.3,0,5.8-0.4,7.5-0.8l-1.5-2.8C15,8.6,12.9,9,10.1,9S5.8,8.4,5.8,7.6
				c0-1,1.7-1.4,5.5-2.1c5.2-1,7.7-2.4,7.7-4.5c0-2.5-3.8-4.7-11.9-4.7c-3.4,0-6.7,0.5-8.4,0.9L0,0z"/>
		</g>
		<g id="g3149" transform="matrix(1.25,0,0,-1.25,281.77257,519.48502)">
			<path id="path3151" fill="#FFFFFF" d="M0,0c2.5,0.2,5.6,0.3,9,0.3c5.6,0,9.2-0.5,12.1-1.6c3.1-1.2,5-3,5-5.7
				c0-2.9-2.1-4.9-4.9-6.1c-3.1-1.3-7.8-2-13.6-2c-3.5,0-5.9,0.1-7.6,0.2L0,0z M6.7-12.3c0.6-0.1,1.5-0.1,2.3-0.1c6,0,10,1.7,10,5.3
				c0,3.1-3.5,4.8-9.3,4.8c-1.5,0-2.5-0.1-3-0.1V-12.3z"/>
		</g>
	</g>
</g>
</svg>
